<svg id="Layer_2" data-name="Layer 2" xmlns="http://www.w3.org/2000/svg" width="228.86mm" height="143.63mm" viewBox="0 0 648.73 407.13">
  <title>overlay</title>
  <rect x="349.66" y="215.28" width="72.53" height="65.98" transform="translate(32.08 -43.91) rotate(6.79)" fill="#00aeef"/>
  <rect x="466.37" y="225.84" width="64.5" height="63.12" transform="translate(43.61 -70.99) rotate(8.51)" fill="#00aeef"/>
  <rect x="332.85" y="189.55" width="50.74" height="18.12" transform="matrix(0.99, 0.17, -0.17, 0.99, 39.24, -58.33)" fill="#00aeef"/>
  <rect x="214.61" y="74.67" width="36.23" height="180.73" transform="translate(26.33 -31.94) rotate(8.32)" fill="#00aeef"/>
  <ellipse cx="426.17" cy="186.53" rx="10.3" ry="7.46" fill="#00a651"/>
  <ellipse cx="429.33" cy="172.62" rx="10.3" ry="7.46" fill="#00a651"/>
  <ellipse cx="432.14" cy="161.19" rx="10.3" ry="7.46" fill="#00a651"/>
  <ellipse cx="434.27" cy="151.96" rx="10.3" ry="7.46" fill="#00a651"/>
  <ellipse cx="434.98" cy="141.3" rx="10.3" ry="7.46" fill="#00a651"/>
  <ellipse cx="434.98" cy="132.07" rx="10.3" ry="7.46" fill="#00a651"/>
  <rect x="418.11" y="244.97" width="50.74" height="15.74" transform="translate(10.59 -17.73) rotate(2.32)" fill="#00aeef"/>
</svg>
